<svg width="86" height="70" viewBox="0 0 86 70" fill="none" xmlns="http://www.w3.org/2000/svg">
<path fill-rule="evenodd" clip-rule="evenodd" d="M56.875 31.5C58 33.5 60.5 34.125 62.5 33L71.5 27.5C71.125 26.75 71 26 71 25C71 21.75 73.625 19 77 19C80.25 19 83 21.75 83 25C83 28.375 80.25 31 77 31H76L67 55H19L9.875 31H9C5.625 31 3 28.375 3 25C3 21.75 5.625 19 9 19C12.25 19 15 21.75 15 25C15 26 14.75 26.75 14.375 27.5L23.5 33C25.375 34.125 27.875 33.5 29 31.5L39.125 13.625C37.875 12.625 37 10.875 37 9C37 5.75 39.625 3 43 3C46.25 3 49 5.75 49 9C49 10.875 48.125 12.625 46.75 13.625L56.875 31.5ZM50.4438 14.0593L59.4853 30.0214L59.4897 30.0292C59.7503 30.4925 60.3648 30.7371 60.9942 30.4044L68.0478 26.0938C68.0134 25.7299 68 25.3659 68 25C68 20.134 71.9276 16 77 16C81.9069 16 86 20.0931 86 25C86 29.6836 82.4754 33.3912 78.1045 33.932L69.8026 56.0706C70.9199 56.2685 71.8495 56.8569 72.4963 57.5037C73.2924 58.2997 74 59.5243 74 61V65C74 67.9009 71.5352 70 69 70H17C14.2181 70 12 67.7819 12 65V61C12 58.7058 13.7189 56.4694 16.1953 56.0648L7.77582 33.9203C3.33932 33.3368 0 29.616 0 25C0 20.134 3.9276 16 9 16C13.9069 16 18 20.0931 18 25C18 25.4017 17.9731 25.7794 17.9243 26.1365L25.0435 30.4275C25.0439 30.4278 25.0443 30.428 25.0448 30.4283C25.4676 30.681 26.0872 30.5591 26.3853 30.0292L26.3897 30.0214L35.4724 13.9864C34.5406 12.5477 34 10.8003 34 9C34 4.13399 37.9276 0 43 0C47.9069 0 52 4.09315 52 9C52 10.8165 51.4478 12.5967 50.4438 14.0593ZM17 59H69C70 59 71 60 71 61V65C71 66.125 70 67 69 67H17C15.875 67 15 66.125 15 65V61C15 60 15.875 59 17 59Z" fill="black"/>
</svg>
