<svg width="32" height="33" viewBox="0 0 32 33" fill="none" xmlns="http://www.w3.org/2000/svg">
<path d="M28.375 0.75H3.625C1.72656 0.75 0.25 2.29688 0.25 4.125V28.875C0.25 30.7734 1.72656 32.25 3.625 32.25H13.2578V21.5625H8.82812V16.5H13.2578V12.7031C13.2578 8.34375 15.8594 5.88281 19.7969 5.88281C21.7656 5.88281 23.7344 6.23438 23.7344 6.23438V10.5234H21.5547C19.375 10.5234 18.6719 11.8594 18.6719 13.2656V16.5H23.5234L22.75 21.5625H18.6719V32.25H28.375C30.2031 32.25 31.75 30.7734 31.75 28.875V4.125C31.75 2.29688 30.2031 0.75 28.375 0.75Z" fill="black"/>
</svg>
