<svg width="32" height="33" viewBox="0 0 32 33" fill="none" xmlns="http://www.w3.org/2000/svg">
<path d="M16 12.7734C13.8906 12.7734 12.2031 14.4609 12.2031 16.5C12.2031 18.6094 13.8906 20.2969 16 20.2969C18.0391 20.2969 19.7266 18.6094 19.7266 16.5C19.7266 14.4609 18.0391 12.7734 16 12.7734ZM24.7188 9.89062C24.3672 8.90625 23.5938 8.13281 22.6094 7.78125C21.1328 7.14844 17.6172 7.28906 16 7.28906C14.3125 7.28906 10.7969 7.14844 9.32031 7.78125C8.33594 8.13281 7.5625 8.90625 7.21094 9.89062C6.64844 11.3672 6.71875 14.8828 6.71875 16.5C6.71875 18.1875 6.64844 21.7031 7.21094 23.1797C7.5625 24.1641 8.33594 24.9375 9.32031 25.2891C10.7969 25.9219 14.3125 25.7812 16 25.7812C17.6172 25.7812 21.1328 25.9219 22.6094 25.2891C23.5938 24.9375 24.3672 24.1641 24.7188 23.1797C25.3516 21.7031 25.2109 18.1875 25.2109 16.5C25.2109 14.8828 25.3516 11.3672 24.7188 9.89062ZM16 22.2656C12.7656 22.2656 10.2344 19.7344 10.2344 16.5C10.2344 13.3359 12.7656 10.7344 16 10.7344C19.1641 10.7344 21.7656 13.3359 21.7656 16.5V16.5703C21.7656 19.7344 19.1641 22.3359 16 22.3359V22.2656ZM21.9766 11.8594C21.2031 11.8594 20.6406 11.2969 20.6406 10.5234C20.6406 9.75 21.2031 9.1875 21.9766 9.1875C22.6797 9.1875 23.3125 9.75 23.3125 10.5234C23.3125 11.2969 22.6797 11.8594 21.9766 11.8594ZM28.375 0.75H3.625C1.72656 0.75 0.25 2.29688 0.25 4.125V28.875C0.25 30.7734 1.72656 32.25 3.625 32.25H28.375C30.2031 32.25 31.75 30.7734 31.75 28.875V4.125C31.75 2.29688 30.2031 0.75 28.375 0.75ZM27.1094 21.1406C27.0391 22.9688 26.6172 24.5859 25.3516 25.8516C24.0156 27.1875 22.3984 27.6094 20.6406 27.6797C18.7422 27.8203 13.1875 27.8203 11.3594 27.6797C9.53125 27.6094 7.91406 27.1875 6.64844 25.8516C5.3125 24.5859 4.89062 22.9688 4.82031 21.1406C4.67969 19.3125 4.67969 13.7578 4.82031 11.8594C4.89062 10.1016 5.3125 8.48438 6.64844 7.14844C7.91406 5.88281 9.53125 5.46094 11.3594 5.39062C13.1875 5.25 18.7422 5.25 20.6406 5.39062C22.3984 5.46094 24.0156 5.88281 25.3516 7.21875C26.6172 8.48438 27.0391 10.1016 27.1094 11.9297C27.25 13.7578 27.25 19.3125 27.1094 21.1406Z" fill="black"/>
</svg>
