<svg width="32" height="33" viewBox="0 0 32 33" fill="none" xmlns="http://www.w3.org/2000/svg">
<path d="M29.5 0.75H2.42969C1.23438 0.75 0.25 1.80469 0.25 3.07031V30C0.25 31.2656 1.23438 32.25 2.42969 32.25H29.5C30.6953 32.25 31.75 31.2656 31.75 30V3.07031C31.75 1.80469 30.6953 0.75 29.5 0.75ZM9.74219 27.75H5.10156V12.7734H9.74219V27.75ZM7.42188 10.6641C5.875 10.6641 4.67969 9.46875 4.67969 7.99219C4.67969 6.51562 5.875 5.25 7.42188 5.25C8.89844 5.25 10.0938 6.51562 10.0938 7.99219C10.0938 9.46875 8.89844 10.6641 7.42188 10.6641ZM27.25 27.75H22.5391V20.4375C22.5391 18.75 22.5391 16.5 20.1484 16.5C17.6875 16.5 17.3359 18.3984 17.3359 20.3672V27.75H12.6953V12.7734H17.125V14.8125H17.1953C17.8281 13.6172 19.375 12.3516 21.625 12.3516C26.3359 12.3516 27.25 15.5156 27.25 19.5234V27.75Z" fill="black"/>
</svg>
