<svg width="386" height="394" viewBox="0 0 386 394" fill="none" xmlns="http://www.w3.org/2000/svg">
<path d="M382.938 193.154C385.404 198.546 385.284 204.766 382.611 210.058L311.859 350.139C309.181 355.441 304.233 359.233 298.417 360.441L144.892 392.317C139.078 393.524 133.031 392.017 128.464 388.222L7.72948 287.89C3.17059 284.102 0.582412 278.445 0.696062 272.519L3.70671 115.512C3.82047 109.579 6.62958 104.02 11.3389 100.41L135.802 4.99136C140.517 1.37658 146.623 0.10856 152.387 1.547L304.588 39.5264C310.343 40.9625 315.131 44.94 317.599 50.3339L382.938 193.154Z" stroke="#F5F5F5"/>
</svg>
