<svg width="88" height="91" viewBox="0 0 88 91" fill="none" xmlns="http://www.w3.org/2000/svg">
<path d="M67.315 9.08758C70.119 9.78447 72.4534 11.7195 73.6582 14.3456L86.5393 42.4212C87.7438 45.0466 87.6884 48.0776 86.3886 50.6573L72.5071 78.2089C71.2049 80.7934 68.7957 82.6434 65.9626 83.2342L35.7899 89.5269C32.9586 90.1174 30.0125 89.3859 27.7861 87.5397L4.02123 67.8321C1.79844 65.9888 0.534715 63.2346 0.587003 60.3474L1.14614 29.4728C1.1985 26.5819 2.56463 23.8721 4.85773 22.1108L29.3042 3.33369C31.5996 1.57062 34.5735 0.950133 37.3824 1.64825L67.315 9.08758Z" stroke="#F2BF5E"/>
</svg>
