<svg width="582" height="592" viewBox="0 0 582 592" fill="none" xmlns="http://www.w3.org/2000/svg">
<path d="M455.628 56.9741C467.284 59.8659 476.992 67.9037 482.007 78.8159L577.075 285.658C582.099 296.589 581.868 309.213 576.447 319.953L473.969 522.986C468.549 533.724 458.532 541.407 446.757 543.859L223.857 590.263C212.1 592.71 199.869 589.677 190.619 582.019L15.1551 436.771C5.89657 429.107 0.631262 417.645 0.849283 405.627L4.97578 178.177C5.19407 166.145 10.8852 154.869 20.4351 147.547L200.988 9.11311C210.524 1.80141 222.87 -0.771612 234.533 2.12194L455.628 56.9741Z" stroke="#F2BF5E"/>
</svg>
