<svg width="23" height="21" viewBox="0 0 23 21" fill="none" xmlns="http://www.w3.org/2000/svg">
<path d="M20.4199 11.9987L20.4228 11.9881L20.4252 11.9774L22.0775 4.66489L22.0777 4.66492L22.0801 4.65275C22.2421 3.84274 21.6508 3 20.7461 3H7.37292L7.1383 1.85293L7.13506 1.83713L7.13082 1.82157C6.97834 1.26248 6.4605 0.75 5.80469 0.75H2.21875C1.43686 0.75 0.875 1.37434 0.875 2.09375V2.65625C0.875 3.42458 1.45042 4 2.21875 4H4.23719L6.58426 15.3717C6.01565 15.8279 5.65625 16.5181 5.65625 17.2812C5.65625 18.6472 6.75901 19.75 8.125 19.75C9.45003 19.75 10.5938 18.653 10.5938 17.2812C10.5938 16.9592 10.5235 16.6545 10.4064 16.375H15.9524C15.8422 16.6583 15.7812 16.9635 15.7812 17.2812C15.7812 18.6472 16.884 19.75 18.25 19.75C19.575 19.75 20.7188 18.653 20.7188 17.2812C20.7188 16.4472 20.2977 15.7148 19.6567 15.2728L19.7565 14.7936C19.9718 13.9478 19.3053 13.125 18.4609 13.125H9.44151L9.41417 13H19.0938C19.6905 13 20.2511 12.6176 20.4199 11.9987Z" stroke="#777777"/>
</svg>
