<svg width="32" height="33" viewBox="0 0 32 33" fill="none" xmlns="http://www.w3.org/2000/svg">
<path d="M28.375 0.75H3.625C1.72656 0.75 0.25 2.29688 0.25 4.125V28.875C0.25 30.7734 1.72656 32.25 3.625 32.25H28.375C30.2031 32.25 31.75 30.7734 31.75 28.875V4.125C31.75 2.29688 30.2031 0.75 28.375 0.75ZM24.9297 11.9297C24.9297 12.1406 24.9297 12.3516 24.9297 12.5625C24.9297 18.6094 20.2891 25.6406 11.7812 25.6406C9.17969 25.6406 6.78906 24.9375 4.75 23.6016C5.10156 23.6719 5.45312 23.6719 5.80469 23.6719C7.98438 23.6719 9.95312 22.8984 11.5703 21.7031C9.53125 21.6328 7.84375 20.2969 7.21094 18.4688C7.98438 18.6094 8.61719 18.6094 9.32031 18.3984C7.21094 17.9766 5.66406 16.1484 5.66406 13.8984V13.8281C6.22656 14.1797 6.92969 14.3906 7.70312 14.3906C6.4375 13.5469 5.66406 12.1406 5.66406 10.5938C5.66406 9.67969 5.875 8.90625 6.29688 8.20312C8.54688 11.0156 11.9922 12.8438 15.7891 13.0547C15.1562 9.96094 17.4766 7.35938 20.2891 7.35938C21.625 7.35938 22.8203 7.92188 23.6641 8.83594C24.7188 8.625 25.7031 8.27344 26.6172 7.71094C26.2656 8.83594 25.4922 9.67969 24.5781 10.2422C25.4922 10.1719 26.4062 9.89062 27.25 9.53906C26.6172 10.4531 25.7734 11.2969 24.9297 11.9297Z" fill="black"/>
</svg>
