<svg width="60" height="60" viewBox="0 0 60 60" fill="none" xmlns="http://www.w3.org/2000/svg">
<rect x="1.25" y="1.25" width="57.5" height="57.5" rx="28.75" fill="white"/>
<rect x="6" y="6" width="48" height="48" rx="24" fill="#202124"/>
<path d="M37.8725 26.6857C37.7044 27.0461 37.4001 27.3065 37.0477 27.4348C36.6513 27.5791 36.2508 27.5752 35.8903 27.4071L29.5819 24.4654L34.4877 37.9442C34.7763 38.737 34.34 39.5942 33.5912 39.8667C32.8864 40.1232 31.9572 39.7631 31.6686 38.9702L26.7628 25.4915L23.7771 31.816C23.4569 32.581 22.5319 32.9177 21.7949 32.5374C21.0299 32.2173 20.6932 31.2922 21.0735 30.5553L25.556 20.9424C25.8762 20.1774 26.8012 19.8407 27.5382 20.221L37.151 24.7035C37.916 25.0237 38.2527 25.9487 37.8725 26.6857Z" fill="white"/>
<rect x="1.25" y="1.25" width="57.5" height="57.5" rx="28.75" stroke="#202124" stroke-width="2.5"/>
</svg>
