<svg width="32" height="32" viewBox="0 0 32 32" fill="none" xmlns="http://www.w3.org/2000/svg">
<path d="M22.5446 11.8131L16.0169 25.8119L13.9742 24.8593L14.0862 24.619L12.06 25.3565C11.6636 25.5008 11.243 25.3046 11.0987 24.9082L10.3612 22.882L10.2492 23.1223C10.1091 23.4227 10.0571 23.6911 10.0812 24.0315L10.3187 27.836L13.3857 25.5723C13.6179 25.388 13.8341 25.1597 13.9742 24.8593L16.0169 25.8119C15.7367 26.4127 15.2924 26.9735 14.7398 27.3741L9.97113 30.8557C9.66684 31.1161 9.23834 31.1723 8.86183 30.9601C8.4573 30.8081 8.22491 30.4437 8.18475 30.0592L7.83059 24.1523C7.78233 23.4715 7.92629 22.7706 8.20645 22.1698L14.7342 8.17108L22.5446 11.8131ZM23.0748 3.53907C24.5768 4.23946 25.2341 6.04544 24.5337 7.54744L23.189 10.4313L15.3785 6.78923L16.7233 3.90538C17.4237 2.40337 19.2297 1.74605 20.7317 2.44645L23.0748 3.53907Z" fill="white"/>
</svg>
