<svg width="27" height="26" viewBox="0 0 27 26" fill="none" xmlns="http://www.w3.org/2000/svg">
<path d="M23.6328 10.5824L19.1503 20.1952C18.9822 20.5557 18.6779 20.8161 18.3255 20.9443C17.9291 21.0886 17.5286 21.0847 17.1681 20.9166C16.4031 20.5965 16.0664 19.6715 16.4467 18.9345L19.3723 12.582L5.89358 17.4879C5.10072 17.7764 4.25959 17.3842 3.97101 16.5914C3.69847 15.8425 4.07466 14.9574 4.86752 14.6688L18.3462 9.76293L12.0378 6.82126C11.2728 6.5011 10.9361 5.57609 11.3164 4.8391C11.6365 4.07408 12.5615 3.73741 13.2985 4.11765L22.9114 8.60019C23.6764 8.92035 24.0131 9.84536 23.6328 10.5824Z" fill="white"/>
</svg>
