<svg width="60" height="60" viewBox="0 0 60 60" fill="none" xmlns="http://www.w3.org/2000/svg">
<rect x="1.25" y="1.25" width="57.5" height="57.5" rx="28.75" fill="white"/>
<rect x="6" y="6" width="48" height="48" rx="24" fill="#202124"/>
<path d="M19.5 22.5C19.5 21.7031 20.1562 21 21 21H39C39.7969 21 40.5 21.7031 40.5 22.5C40.5 23.3438 39.7969 24 39 24H21C20.1562 24 19.5 23.3438 19.5 22.5ZM19.5 30C19.5 29.2031 20.1562 28.5 21 28.5H39C39.7969 28.5 40.5 29.2031 40.5 30C40.5 30.8438 39.7969 31.5 39 31.5H21C20.1562 31.5 19.5 30.8438 19.5 30ZM39 39H21C20.1562 39 19.5 38.3438 19.5 37.5C19.5 36.7031 20.1562 36 21 36H39C39.7969 36 40.5 36.7031 40.5 37.5C40.5 38.3438 39.7969 39 39 39Z" fill="white"/>
<rect x="1.25" y="1.25" width="57.5" height="57.5" rx="28.75" stroke="#202124" stroke-width="2.5"/>
</svg>
