<svg width="60" height="60" viewBox="0 0 60 60" fill="none" xmlns="http://www.w3.org/2000/svg">
<rect x="1.25" y="1.25" width="57.5" height="57.5" rx="28.75" fill="white"/>
<rect x="6" y="6" width="48" height="48" rx="24" fill="#F78078"/>
<path d="M32.5652 37.0477C32.1687 37.1919 31.7682 37.1881 31.4078 37.02L19.8723 31.6409C19.1073 31.3207 18.7707 30.3957 19.1509 29.6587C19.4711 28.8937 20.3961 28.5571 21.1331 28.9373L31.3307 33.6559L36.0654 23.5024C36.3855 22.7374 37.3105 22.4007 38.0475 22.7809C38.8125 23.1011 39.1492 24.0261 38.769 24.7631L33.3899 36.2985C33.2218 36.659 32.9175 36.9194 32.5652 37.0477Z" fill="white"/>
<rect x="1.25" y="1.25" width="57.5" height="57.5" rx="28.75" stroke="#F78078" stroke-width="2.5"/>
</svg>
