<svg width="510" height="480" viewBox="0 0 510 480" fill="none" xmlns="http://www.w3.org/2000/svg">
<rect x="190" y="10" width="130" height="130" rx="65" fill="white"/>
<rect x="196" y="16" width="118" height="118" rx="59" fill="#808289"/>
<path d="M233.726 97.8809C233.142 97.8809 232.667 98.3564 232.667 98.9404C232.667 99.5244 233.142 99.9999 233.726 99.9999H276.93C277.514 99.9999 277.989 99.5271 277.989 98.9404C277.989 98.3536 277.514 97.8809 276.93 97.8809H233.726Z" fill="white"/>
<path fill-rule="evenodd" clip-rule="evenodd" d="M263.334 53.9043L273.248 63.8181L275.92 61.1457C277.569 59.4994 277.567 56.802 275.92 55.1557L271.999 51.2347C270.353 49.5884 267.656 49.5884 266.009 51.2347L263.337 53.9071L263.334 53.9043Z" fill="white"/>
<path fill-rule="evenodd" clip-rule="evenodd" d="M235.105 88.5847L238.103 79.1353L248.017 89.0491L238.568 92.0441L235.105 88.5847Z" fill="white"/>
<path fill-rule="evenodd" clip-rule="evenodd" d="M233.501 93.6513L234.747 89.7219L237.43 92.4055L233.501 93.6513Z" fill="white"/>
<path fill-rule="evenodd" clip-rule="evenodd" d="M262.586 54.6523L267.169 59.2352L243.434 82.9699L238.851 78.3871L262.586 54.6523ZM267.917 59.9833L244.182 83.718L248.765 88.3009L272.5 64.5661L267.917 59.9833Z" fill="white"/>
<rect x="191.25" y="11.25" width="127.5" height="127.5" rx="63.75" stroke="#808289" stroke-width="2.5"/>
<rect y="10" width="130" height="130" rx="65" fill="white"/>
<rect x="6" y="16" width="118" height="118" rx="59" fill="#808289"/>
<path fill-rule="evenodd" clip-rule="evenodd" d="M40 54.9995H42.7774V58.7505C42.7774 60.1296 44.0225 61.2502 45.5549 61.2502C47.0872 61.2502 48.3323 60.1296 48.3323 58.7505V54.9995H52.5V58.7505C52.5 60.1296 53.7451 61.2502 55.2774 61.2502C56.8098 61.2502 58.0549 60.1296 58.0549 58.7505V54.9995H62.2226V58.7505C62.2226 60.1296 63.4676 61.2502 65 61.2502C66.5324 61.2502 67.7774 60.1296 67.7774 58.7505V54.9995H71.9451V58.7505C71.9451 60.1296 73.1902 61.2502 74.7226 61.2502C76.2549 61.2502 77.5 60.1296 77.5 58.7505V54.9995H81.6677V58.7505C81.6677 60.1296 82.9128 61.2502 84.4451 61.2502C85.9775 61.2502 87.2226 60.1296 87.2226 58.7505V54.9995H90V65.0012H40V54.9995ZM90 67.5009V100H40V67.5009H90ZM51.3044 93.7633L63.4429 93.7772V91.6723H53.8532C53.8841 90.8437 54.2116 90.0179 54.848 89.1809C55.4844 88.3495 56.5812 87.3513 58.1259 86.1974C58.3237 86.0472 58.6172 85.8331 59.0002 85.5551C60.5419 84.4373 61.5305 83.567 61.9754 82.9441C62.4203 82.3574 62.7416 81.7262 62.9455 81.0478C63.1494 80.3665 63.2483 79.5796 63.2483 78.6843C63.2483 76.9242 62.7292 75.5562 61.6912 74.5719C60.6562 73.5903 59.2165 73.0982 57.3721 73.0982C55.5277 73.0982 54.0478 73.6404 53.0252 74.7164C52.0057 75.7953 51.4928 77.3274 51.4928 79.3183C51.4928 79.3961 51.499 79.5185 51.5083 79.6825C51.5175 79.8494 51.5237 79.9689 51.5237 80.0496H53.9799C53.9799 79.8994 53.9737 79.7493 53.9644 79.5935C53.9551 79.4434 53.949 79.3711 53.949 79.3711C53.949 77.9475 54.2208 76.8881 54.7739 76.1818C55.3207 75.4811 56.1487 75.1307 57.2547 75.1307C58.3607 75.1307 59.1609 75.445 59.7417 76.0761C60.3225 76.7073 60.616 77.6138 60.616 78.7955C60.616 79.5685 60.5203 80.2331 60.3318 80.792C60.1434 81.3509 59.8468 81.8514 59.4328 82.2851C58.9261 82.8134 57.9066 83.6865 56.3649 84.91C55.8799 85.302 55.5122 85.6023 55.2527 85.8053C53.8995 86.887 52.8985 88.0186 52.2467 89.2032C51.5948 90.3849 51.2704 91.6445 51.2704 92.9875C51.2704 93.2016 51.2704 93.3601 51.2766 93.4685C51.2827 93.5742 51.292 93.6687 51.3013 93.7605L51.3044 93.7633ZM66.5849 93.7633L78.7234 93.7772V91.6723H69.1337C69.1646 90.8437 69.4921 90.0179 70.1285 89.1809C70.765 88.3495 71.8617 87.3513 73.4065 86.1974C73.6042 86.0472 73.8977 85.8331 74.2808 85.5551C75.8224 84.4373 76.811 83.567 77.2559 82.9441C77.7008 82.3574 78.0252 81.7262 78.226 81.0478C78.4299 80.3665 78.5288 79.5796 78.5288 78.6843C78.5288 76.9242 78.0067 75.5562 76.9717 74.5719C75.9367 73.5903 74.497 73.0982 72.6526 73.0982C70.8082 73.0982 69.3284 73.6404 68.3057 74.7164C67.2862 75.7953 66.7734 77.3274 66.7734 79.3183C66.7734 79.3961 66.7795 79.5185 66.7888 79.6825C66.7981 79.8494 66.8043 79.9689 66.8043 80.0496H69.2604C69.2604 79.8994 69.2542 79.7493 69.2449 79.5935C69.2357 79.4434 69.2295 79.3711 69.2295 79.3711C69.2295 77.9475 69.5014 76.8881 70.0544 76.1818C70.6012 75.4811 71.4292 75.1307 72.5352 75.1307C73.6413 75.1307 74.4414 75.445 75.0222 76.0761C75.6031 76.7073 75.8966 77.6138 75.8966 78.7955C75.8966 79.5685 75.8008 80.2331 75.6123 80.792C75.4239 81.3509 75.1273 81.8514 74.7133 82.2851C74.2066 82.8134 73.1871 83.6865 71.6455 84.91C71.1604 85.302 70.7928 85.6023 70.5332 85.8053C69.1801 86.887 68.1791 88.0186 67.5272 89.2032C66.8753 90.3849 66.5509 91.6445 66.5509 92.9875C66.5509 93.2016 66.5509 93.3601 66.5571 93.4685C66.5633 93.5742 66.5725 93.6687 66.5818 93.7605L66.5849 93.7633Z" fill="white"/>
<path d="M46.942 51.2513C46.942 50.5617 46.3211 50 45.5518 50C44.7825 50 44.1615 50.5589 44.1615 51.2513V58.7504C44.1615 59.44 44.7825 60.0017 45.5518 60.0017C46.3211 60.0017 46.942 59.4428 46.942 58.7504V51.2513ZM76.1097 51.2513C76.1097 50.5617 75.4888 50 74.7195 50C73.9502 50 73.3292 50.5589 73.3292 51.2513V58.7504C73.3292 59.44 73.9502 60.0017 74.7195 60.0017C75.4888 60.0017 76.1097 59.4428 76.1097 58.7504V51.2513ZM66.3872 51.2513C66.3872 50.5617 65.7662 50 64.9969 50C64.2276 50 63.6066 50.5589 63.6066 51.2513V58.7504C63.6066 59.44 64.2276 60.0017 64.9969 60.0017C65.7662 60.0017 66.3872 59.4428 66.3872 58.7504V51.2513ZM56.6646 51.2513C56.6646 50.5617 56.0436 50 55.2743 50C54.5051 50 53.8841 50.5589 53.8841 51.2513V58.7504C53.8841 59.44 54.5051 60.0017 55.2743 60.0017C56.0436 60.0017 56.6646 59.4428 56.6646 58.7504V51.2513ZM85.8323 51.2513C85.8323 50.5617 85.2113 50 84.442 50C83.6728 50 83.0518 50.5589 83.0518 51.2513V58.7504C83.0518 59.44 83.6728 60.0017 84.442 60.0017C85.2113 60.0017 85.8323 59.4428 85.8323 58.7504V51.2513Z" fill="white"/>
<rect x="1.25" y="11.25" width="127.5" height="127.5" rx="63.75" stroke="#808289" stroke-width="2.5"/>
<rect x="380" y="10" width="130" height="130" rx="65" fill="white"/>
<rect x="386" y="16" width="118" height="118" rx="59" fill="#808289"/>
<path d="M425.43 50H464.836C465.414 50 465.937 50.2363 466.318 50.6145C466.696 50.9927 466.932 51.5182 466.932 52.0965V77.6916C466.932 78.2699 466.696 78.7927 466.318 79.1708C465.94 79.549 465.414 79.7853 464.839 79.7853H425.43C424.851 79.7853 424.329 79.549 423.951 79.1708C423.572 78.7927 423.336 78.2672 423.336 77.6916V52.0965C423.333 51.5182 423.57 50.9927 423.948 50.6145C424.326 50.2363 424.851 50 425.43 50ZM425.43 51.0427C425.149 51.0427 424.885 51.1539 424.685 51.3514C424.487 51.5488 424.376 51.8157 424.376 52.0965V77.6916C424.376 77.9724 424.487 78.2366 424.685 78.4368C424.882 78.6342 425.149 78.7454 425.43 78.7454H464.836C465.117 78.7454 465.381 78.6342 465.581 78.4368C465.779 78.2393 465.89 77.9724 465.89 77.6916V52.0965C465.89 51.8157 465.779 51.5516 465.581 51.3514C465.384 51.1539 465.117 51.0427 464.836 51.0427H425.43Z" fill="white"/>
<path fill-rule="evenodd" clip-rule="evenodd" d="M425.43 52.0825C425.43 52.0825 425.424 52.0853 425.424 52.0881C425.424 52.0881 425.422 52.0909 425.419 52.0964V77.6942C425.419 77.6942 425.422 77.6998 425.424 77.6998C425.424 77.6998 425.427 77.7026 425.433 77.7054H464.839C464.839 77.7054 464.844 77.7026 464.844 77.6998C464.844 77.6998 464.847 77.697 464.85 77.6915V52.0936C464.85 52.0936 464.847 52.0881 464.844 52.0881C464.844 52.0881 464.842 52.0853 464.836 52.0825H425.43ZM440.231 64.9315C439.708 65.9519 439.702 68.8993 439.758 71.5103L437.795 71.8551C437.692 71.552 437.534 71.2878 437.336 71.0682C436.964 70.6511 436.449 70.3758 435.89 70.2479C435.312 70.1172 434.695 70.1422 434.144 70.3285C433.822 70.437 433.524 70.6038 433.274 70.829L431.931 69.322C432.387 68.916 432.923 68.6129 433.496 68.4183C434.397 68.1124 435.398 68.068 436.332 68.2821C436.822 68.3933 437.295 68.5768 437.731 68.827C437.767 66.8417 437.937 64.9954 438.437 64.0167C439.386 62.162 440.806 62.0731 442.992 65.5515C443.37 63.1575 444.087 60.1573 445.5 59.5511C446.74 59.0172 448.119 59.8514 449.562 63.2103C449.701 63.5356 449.843 63.911 449.982 64.2753C450.246 64.9704 450.018 65.6739 450.246 65.6238C451.131 65.4236 451.445 63.6107 451.748 61.8395C452.101 59.7902 452.446 57.7827 453.925 57.0013L454.865 58.7864C454.27 59.1006 454.008 60.6244 453.739 62.1787C453.322 64.6034 452.893 67.092 450.688 67.5869C449.206 67.9206 448.692 66.5581 448.094 64.9815C447.977 64.6729 447.858 64.3531 447.708 64.0056C446.851 62.0119 446.443 61.3418 446.298 61.403C445.428 61.7755 444.899 66.2884 444.694 68.0513C444.591 68.9355 444.527 69.4833 443.857 69.6751L443.05 69.9059L442.675 69.1524C440.959 65.7073 440.328 64.7313 440.228 64.9287L440.231 64.9315ZM448.723 71.3518L450.405 70.2451C451.639 72.1192 456.372 68.9689 457.223 68.4016C457.429 68.2654 457.543 68.1875 457.754 68.1514L458.012 69.5945L458.11 70.1339C458.185 70.1144 458.324 70.0839 458.338 70.0839C457.228 70.8207 451.072 74.9165 448.723 71.3518Z" fill="white"/>
<path d="M437.962 79.7353C438.009 79.6547 438.151 79.5073 438.065 79.4851L437.856 79.4267C437.375 79.1486 437.325 79.2015 436.232 78.7927H436.177L436.021 79.0652L424.81 98.4874C424.532 98.9685 424.696 99.5857 425.177 99.8638C425.658 100.142 426.275 99.9778 426.556 99.4968L437.962 79.7353ZM452.165 79.2209C452.165 79.3961 452.207 79.5741 452.301 79.7353L463.71 99.4968C463.988 99.9778 464.605 100.142 465.089 99.8638C465.57 99.5857 465.734 98.9685 465.456 98.4874L454.323 79.2015C453.894 78.4591 453.438 79.0513 452.991 79.1236C452.59 79.1876 452.173 78.6565 452.168 79.2237L452.165 79.2209ZM446.142 79.0652C446.142 78.5063 445.689 79.1681 445.133 79.1681C444.577 79.1681 444.121 78.5091 444.121 79.0652V96.1323C444.121 96.6912 444.574 97.1416 445.13 97.1416C445.686 97.1416 446.142 96.6884 446.142 96.1323V79.0652Z" fill="white"/>
<rect x="381.25" y="11.25" width="127.5" height="127.5" rx="63.75" stroke="#808289" stroke-width="2.5"/>
<rect x="190" y="175" width="130" height="130" rx="65" fill="white"/>
<rect x="196" y="181" width="118" height="118" rx="59" fill="#808289"/>
<g clip-path="url(#clip0_2_842)">
<path fill-rule="evenodd" clip-rule="evenodd" d="M247.549 215C250.713 215 253.28 217.566 253.28 220.731C253.28 223.895 250.713 226.461 247.549 226.461C244.385 226.461 241.818 223.895 241.818 220.731C241.818 217.566 244.385 215 247.549 215Z" fill="white"/>
<path d="M263.403 224.409C265.435 221.982 265.115 218.368 262.688 216.336C260.261 214.304 256.647 214.624 254.615 217.05C252.583 219.477 252.903 223.091 255.33 225.123C257.757 227.155 261.371 226.835 263.403 224.409Z" fill="white"/>
<path fill-rule="evenodd" clip-rule="evenodd" d="M267.391 226.564L273.228 224.546V238.015L267.391 235.996V226.564Z" fill="white"/>
<path fill-rule="evenodd" clip-rule="evenodd" d="M253.277 238.966H257.581C257.581 241.343 255.654 243.27 253.277 243.27C250.9 243.27 248.973 241.343 248.973 238.966H253.277Z" fill="white"/>
<path d="M250.008 241.215L237.336 263.954L239.209 264.998L251.881 242.259L250.008 241.215Z" fill="white"/>
<path d="M256.226 240.586L254.353 241.628L267.354 264.996L269.227 263.954L256.226 240.586Z" fill="white"/>
<path d="M254.356 242.483H252.204V261.839H254.356V242.483Z" fill="white"/>
<path fill-rule="evenodd" clip-rule="evenodd" d="M242.177 239.344H264.38C265.445 239.344 266.315 238.474 266.315 237.409V225.152C266.315 224.404 265.884 223.751 265.258 223.428C264.213 225.844 261.808 227.535 259.011 227.535C256.605 227.535 254.492 226.286 253.28 224.401C252.07 226.286 249.954 227.535 247.549 227.535C244.749 227.535 242.344 225.844 241.301 223.428C240.676 223.751 240.245 224.401 240.245 225.152V237.409C240.245 238.474 241.115 239.344 242.18 239.344H242.177Z" fill="white"/>
</g>
<rect x="191.25" y="176.25" width="127.5" height="127.5" rx="63.75" stroke="#808289" stroke-width="2.5"/>
<rect y="175" width="130" height="130" rx="65" fill="white"/>
<rect x="6" y="181" width="118" height="118" rx="59" fill="#808289"/>
<g clip-path="url(#clip1_2_842)">
<path fill-rule="evenodd" clip-rule="evenodd" d="M46.4669 229.523H56.9246L58.3705 225.174H72.0397L73.4856 229.523H83.9433C87.1326 229.523 89.7435 232.134 89.7435 235.323V259.203C89.7435 262.392 87.1326 265.003 83.9433 265.003H46.4669C43.2776 265.003 40.6667 262.392 40.6667 259.203V235.32C40.6667 232.131 43.2748 229.52 46.4669 229.52V229.523ZM51.1716 239.221V259.511H79.2414V239.221H51.1716ZM60.5866 228.583V232.264H69.8236V228.583H60.5866ZM78.0012 232.815C77.4118 232.815 76.9335 233.293 76.9335 233.883C76.9335 234.472 77.4118 234.951 78.0012 234.951H84.3353C84.9248 234.951 85.4031 234.472 85.4031 233.883C85.4031 233.293 84.9248 232.815 84.3353 232.815H78.0012Z" fill="white"/>
<path d="M50.2262 226.965C50.2262 226.375 49.748 225.897 49.1585 225.897C48.569 225.897 48.0908 226.375 48.0908 226.965V229.523C48.0908 230.112 48.569 230.591 49.1585 230.591C49.748 230.591 50.2262 230.112 50.2262 229.523V226.965Z" fill="white"/>
<path d="M59.2714 217.263C58.9766 216.754 58.326 216.582 57.8171 216.877C57.3083 217.172 57.1359 217.822 57.4307 218.331L59.3437 221.643C59.6384 222.152 60.2891 222.324 60.7979 222.029C61.3068 221.734 61.4791 221.084 61.1844 220.575L59.2714 217.263Z" fill="white"/>
<path d="M72.9823 218.331C73.2771 217.822 73.1019 217.172 72.5958 216.877C72.087 216.582 71.4363 216.754 71.1416 217.263L69.2286 220.575C68.9338 221.084 69.1062 221.734 69.6151 222.029C70.1239 222.324 70.7746 222.152 71.0693 221.643L72.9823 218.331Z" fill="white"/>
<path d="M66.2728 216.068C66.2728 215.478 65.7946 215 65.2051 215C64.6156 215 64.1374 215.478 64.1374 216.068V221.109C64.1374 221.698 64.6156 222.177 65.2051 222.177C65.7946 222.177 66.2728 221.698 66.2728 221.109V216.068Z" fill="white"/>
<path fill-rule="evenodd" clip-rule="evenodd" d="M66.245 252.451C66.3618 252.582 66.3562 252.785 66.2311 252.91L65.4359 253.705C65.3052 253.836 65.0911 253.836 64.9604 253.705L64.1652 252.91C64.04 252.785 64.0345 252.582 64.1513 252.451H66.245Z" fill="white"/>
<path fill-rule="evenodd" clip-rule="evenodd" d="M64.4627 254.679L64.6712 252.877H65.7695L65.967 254.595L65.1967 256.722L64.4627 254.679Z" fill="white"/>
<path fill-rule="evenodd" clip-rule="evenodd" d="M67.1431 252.451L65.194 257.832L63.267 252.451H59.6829C56.3379 252.579 56.8217 258.346 56.8217 258.346H73.5885C73.5885 258.346 74.0723 252.579 70.7273 252.451H67.1431Z" fill="white"/>
<path fill-rule="evenodd" clip-rule="evenodd" d="M68.6446 241.718C69.7263 243.159 69.4176 244.933 69.515 245.091C69.6123 245.25 70.3881 246.109 69.3481 247.354C66.8095 252.938 63.5451 252.938 61.0092 247.354C59.9693 246.109 60.9286 245.65 60.8424 245.091C60.7562 244.535 60.5616 241.66 62.2549 241.782C62.7693 239.188 67.3239 240.848 68.6419 241.716L68.6446 241.718ZM61.5987 244.699C61.6071 244.807 61.6154 244.902 61.6265 244.974C61.6515 245.13 61.646 245.086 61.6404 245.236C61.5931 246.112 60.9564 246.059 61.6182 246.851L61.6877 246.932L61.7322 247.029C62.2744 248.219 63.6007 250.752 65.1829 250.752C66.765 250.752 68.0913 248.219 68.6335 247.029L68.678 246.932L68.7475 246.851C68.9422 246.618 69.1507 246.29 69.0868 245.97C69.0478 245.77 68.9449 245.672 68.8448 245.508C68.7281 245.319 68.7086 245.116 68.703 244.905C68.5807 244.474 68.3471 243.87 67.9245 243.584C67.3461 243.192 66.1894 244.435 65.3942 243.959C64.5239 243.434 61.988 243.295 61.5987 244.719V244.699Z" fill="white"/>
</g>
<rect x="1.25" y="176.25" width="127.5" height="127.5" rx="63.75" stroke="#808289" stroke-width="2.5"/>
<rect x="380" y="175" width="130" height="130" rx="65" fill="white"/>
<rect x="386" y="181" width="118" height="118" rx="59" fill="#808289"/>
<g clip-path="url(#clip2_2_842)">
<path d="M434.308 253.472H430.226V263.98H434.308V253.472Z" fill="white"/>
<path fill-rule="evenodd" clip-rule="evenodd" d="M439.936 263.98V244.913L444.018 245.97V263.98H439.936Z" fill="white"/>
<path d="M453.199 252.754H449.117V263.98H453.199V252.754Z" fill="white"/>
<path fill-rule="evenodd" clip-rule="evenodd" d="M458.302 263.98V245.205L462.383 243.57V263.98H458.302Z" fill="white"/>
<path fill-rule="evenodd" clip-rule="evenodd" d="M449.801 250.889L464.427 236.266L467.313 239.152L449.801 256.661L440.459 247.318L423.553 264.221L420.667 261.338L440.459 241.546L449.801 250.889Z" fill="white"/>
<path fill-rule="evenodd" clip-rule="evenodd" d="M464.088 239.491H457.965V235.409H468.17V245.611H464.088V239.491Z" fill="white"/>
<path fill-rule="evenodd" clip-rule="evenodd" d="M424.871 260.918H470.211V265H420.789V215H424.871V260.918Z" fill="white"/>
</g>
<rect x="381.25" y="176.25" width="127.5" height="127.5" rx="63.75" stroke="#808289" stroke-width="2.5"/>
<rect x="190" y="340" width="130" height="130" rx="65" fill="white"/>
<rect x="196" y="346" width="118" height="118" rx="59" fill="#808289"/>
<path d="M256.028 409.659H253.972V423.583H256.028V409.659Z" fill="white"/>
<path d="M273.517 423.031H236.483V425.088H273.517V423.031Z" fill="white"/>
<path d="M273.514 415.831H271.458V423.583H273.514V415.831Z" fill="white"/>
<path d="M237.513 415.831H235.456V425.09H237.513V415.831Z" fill="white"/>
<path d="M232.403 402.429H242.31C242.972 402.429 243.573 402.698 244.007 403.134C244.441 403.568 244.713 404.17 244.713 404.831V414.744H230V404.831C230 404.17 230.269 403.568 230.706 403.134C231.14 402.701 231.741 402.429 232.403 402.429ZM237.356 392.173C238.652 392.173 239.825 392.697 240.673 393.549C241.522 394.397 242.046 395.57 242.046 396.866C242.046 398.162 241.522 399.334 240.673 400.183C239.825 401.031 238.652 401.556 237.356 401.556C236.06 401.556 234.888 401.031 234.039 400.183C233.191 399.334 232.666 398.162 232.666 396.866C232.666 395.57 233.191 394.397 234.042 393.549C234.89 392.7 236.063 392.173 237.359 392.173H237.356Z" fill="white"/>
<path d="M250.045 396.259H259.952C260.614 396.259 261.215 396.528 261.649 396.964C262.083 397.398 262.355 398 262.355 398.661V408.574H247.642V398.659C247.642 397.997 247.911 397.395 248.348 396.962C248.782 396.528 249.383 396.256 250.045 396.256V396.259ZM254.999 386C256.295 386 257.467 386.524 258.316 387.373C259.164 388.221 259.691 389.394 259.691 390.69C259.691 391.986 259.167 393.159 258.316 394.007C257.467 394.856 256.295 395.38 254.999 395.38C253.703 395.38 252.53 394.856 251.682 394.007C250.833 393.159 250.309 391.986 250.309 390.69C250.309 389.394 250.833 388.221 251.682 387.373C252.53 386.524 253.703 386 254.999 386V386Z" fill="white"/>
<path d="M267.69 402.429H277.597C278.259 402.429 278.86 402.698 279.294 403.134C279.728 403.568 280 404.169 280 404.831V414.744H265.288V404.831C265.288 404.169 265.557 403.568 265.993 403.134C266.427 402.7 267.028 402.429 267.69 402.429ZM272.644 392.17C273.94 392.17 275.112 392.694 275.961 393.546C276.809 394.394 277.334 395.567 277.334 396.863C277.334 398.159 276.809 399.331 275.961 400.18C275.112 401.028 273.94 401.553 272.644 401.553C271.348 401.553 270.175 401.028 269.327 400.18C268.478 399.331 267.951 398.159 267.951 396.863C267.951 395.567 268.475 394.394 269.327 393.546C270.175 392.697 271.348 392.17 272.644 392.17Z" fill="white"/>
<rect x="191.25" y="341.25" width="127.5" height="127.5" rx="63.75" stroke="#808289" stroke-width="2.5"/>
<rect y="340" width="130" height="130" rx="65" fill="white"/>
<rect x="6" y="346" width="118" height="118" rx="59" fill="#808289"/>
<path fill-rule="evenodd" clip-rule="evenodd" d="M50 382.383V421.147H81.2507V382.383C81.2507 381.727 80.9838 381.132 80.5528 380.701C80.1218 380.27 79.5267 380.003 78.8705 380.003H52.3829C51.7267 380 51.1289 380.267 50.6979 380.698C50.2669 381.129 50 381.727 50 382.383ZM59.8487 404.647C59.9516 402.186 60.1824 399.759 60.6495 397.376C60.8136 396.539 61.0082 395.707 61.239 394.884H70.2258C70.4371 395.716 70.6123 396.553 70.7596 397.398C71.1712 399.778 71.3408 402.197 71.4131 404.647H73.137C73.6514 404.647 74.1186 404.855 74.455 405.195C74.7915 405.534 75.0028 405.998 75.0028 406.513V414.932L73.4651 413.394L69.8615 409.791L69.7142 409.643H66.5193V414.559H64.7175V409.643H61.5421L61.3947 409.791L57.7911 413.394L56.2535 414.932V406.513C56.2535 405.998 56.462 405.531 56.8012 405.195C57.1377 404.858 57.6048 404.647 58.1192 404.647H59.8515H59.8487ZM61.5032 393.983C62.2901 391.45 63.4245 388.987 65.0484 386.609C65.3292 386.198 65.8909 386.092 66.2996 386.373C66.4136 386.451 66.5054 386.551 66.5693 386.665C68.1737 389.026 69.2526 391.473 69.9811 393.983H61.5059H61.5032Z" fill="white"/>
<path fill-rule="evenodd" clip-rule="evenodd" d="M50 422.187V427.617C50 428.273 50.2669 428.868 50.6979 429.299C51.1289 429.73 51.7239 429.997 52.3802 429.997H78.8678C79.524 429.997 80.119 429.73 80.55 429.299C80.981 428.868 81.2479 428.273 81.2479 427.617V422.187H50ZM63.7109 426.093C63.7109 425.037 64.5673 424.177 65.6267 424.177C66.6861 424.177 67.5425 425.034 67.5425 426.093C67.5425 427.153 66.6861 428.009 65.6267 428.009C64.5673 428.009 63.7109 427.153 63.7109 426.093Z" fill="white"/>
<path fill-rule="evenodd" clip-rule="evenodd" d="M62.9574 392.941H68.5491C67.8484 390.986 66.8863 389.14 65.788 387.377C64.6174 389.123 63.6803 390.98 62.9574 392.941ZM57.2906 412.416L61.1055 408.601H70.1396L73.9545 412.416V406.513C73.9545 406.293 73.8683 406.084 73.7126 405.931C73.5569 405.776 73.3511 405.689 73.1315 405.689H70.3954L70.3676 404.677C70.3008 402.3 70.134 399.92 69.7308 397.576C69.6363 397.022 69.5279 396.475 69.4027 395.927H62.0398C61.9036 396.475 61.7812 397.025 61.67 397.579C61.2084 399.923 60.986 402.308 60.8859 404.691L60.8442 405.689H58.1137C57.894 405.689 57.6855 405.776 57.5325 405.931C57.3768 406.087 57.2906 406.293 57.2906 406.513V412.416Z" fill="white"/>
<rect x="1.25" y="341.25" width="127.5" height="127.5" rx="63.75" stroke="#808289" stroke-width="2.5"/>
<rect x="380" y="340" width="130" height="130" rx="65" fill="white"/>
<rect x="386" y="346" width="118" height="118" rx="59" fill="#808289"/>
<path d="M434.76 389.704C438.277 389.704 441.464 391.108 443.775 393.38C446.088 395.654 447.52 398.797 447.52 402.267C447.52 407.21 445.935 408.706 444.178 410.364C442.356 412.082 440.31 414.009 440.31 422.284V423.327H429.213V422.284C429.213 414.009 427.166 412.082 425.345 410.364C423.585 408.706 422.003 407.21 422.003 402.267C422.003 398.797 423.435 395.654 425.748 393.38C428.059 391.108 431.245 389.704 434.763 389.704H434.76Z" fill="white"/>
<path d="M441.333 424.594H428.187V426.677H441.333V424.594Z" fill="white"/>
<path d="M439.448 427.917H430.078V430H439.448V427.917Z" fill="white"/>
<path d="M435.803 381.043C435.803 380.467 435.336 380 434.76 380C434.184 380 433.717 380.467 433.717 381.043V387.218C433.717 387.794 434.184 388.261 434.76 388.261C435.336 388.261 435.803 387.794 435.803 387.218V381.043Z" fill="white"/>
<path d="M445.899 383.909C446.13 383.384 445.891 382.769 445.365 382.539C444.84 382.308 444.225 382.547 443.994 383.072L441.489 388.72C441.258 389.245 441.497 389.86 442.023 390.091C442.548 390.321 443.163 390.082 443.394 389.557L445.899 383.909Z" fill="white"/>
<path d="M425.529 383.072C425.298 382.547 424.683 382.308 424.158 382.539C423.632 382.769 423.393 383.384 423.624 383.909L426.129 389.557C426.36 390.082 426.974 390.321 427.5 390.091C428.025 389.86 428.265 389.245 428.034 388.72L425.529 383.072Z" fill="white"/>
<path fill-rule="evenodd" clip-rule="evenodd" d="M457.747 407.083C454.583 407.083 451.719 408.364 449.644 410.439C447.57 412.513 446.288 415.377 446.288 418.541C446.288 421.705 447.57 424.569 449.644 426.644C451.719 428.718 454.583 430 457.747 430C460.911 430 463.775 428.718 465.849 426.644C467.924 424.569 469.206 421.705 469.206 418.541C469.206 415.377 467.924 412.513 465.849 410.439C463.775 408.364 460.911 407.083 457.747 407.083ZM455.128 413.105C455.692 412.499 456.44 412.151 457.374 412.057V411.251H458.553V412.057C459.418 412.163 460.105 412.455 460.616 412.941C461.125 413.428 461.451 414.078 461.592 414.893L459.532 415.163C459.407 414.521 459.081 414.087 458.553 413.859V417.045C459.857 417.398 460.747 417.857 461.217 418.419C461.69 418.981 461.926 419.701 461.926 420.582C461.926 421.564 461.628 422.392 461.036 423.065C460.441 423.741 459.613 424.152 458.55 424.305V425.829H457.371V424.344C456.432 424.23 455.667 423.88 455.08 423.293C454.494 422.709 454.121 421.881 453.957 420.81L456.084 420.582C456.17 421.016 456.334 421.391 456.573 421.705C456.81 422.02 457.077 422.248 457.371 422.389V418.975C456.306 418.669 455.525 418.21 455.027 417.593C454.533 416.976 454.282 416.228 454.282 415.349C454.282 414.47 454.563 413.711 455.125 413.105H455.128Z" fill="white"/>
<path fill-rule="evenodd" clip-rule="evenodd" d="M456.61 414.387C456.421 414.649 456.326 414.938 456.326 415.252C456.326 415.538 456.412 415.808 456.585 416.053C456.76 416.3 457.024 416.5 457.377 416.653V413.831C457.054 413.939 456.801 414.126 456.61 414.384V414.387Z" fill="white"/>
<path fill-rule="evenodd" clip-rule="evenodd" d="M458.556 419.328V422.506C458.965 422.431 459.296 422.242 459.551 421.942C459.807 421.639 459.935 421.286 459.935 420.877C459.935 420.513 459.827 420.201 459.613 419.937C459.398 419.673 459.045 419.47 458.556 419.331V419.328Z" fill="white"/>
<rect x="381.25" y="341.25" width="127.5" height="127.5" rx="63.75" stroke="#808289" stroke-width="2.5"/>
<defs>
<clipPath id="clip0_2_842">
<rect width="50" height="50" fill="white" transform="translate(230 215)"/>
</clipPath>
<clipPath id="clip1_2_842">
<rect width="50" height="50" fill="white" transform="translate(40 215)"/>
</clipPath>
<clipPath id="clip2_2_842">
<rect width="50" height="50" fill="white" transform="translate(420 215)"/>
</clipPath>
</defs>
</svg>
